<svg width="170" height="28" viewBox="0 0 170 28" fill="none" xmlns="http://www.w3.org/2000/svg">
<path d="M30.1596 13.8095C30.1596 10.5321 32.3434 7.94447 35.3778 7.94447C38.1656 7.94447 40.1063 9.72793 40.1957 12.9625V13.4521H32.5257V13.7416C32.5257 16.5973 33.9982 18.1342 36.3607 18.1342C37.5866 18.1342 38.5016 17.7553 39.3951 17.1299L39.9312 17.8197C38.7732 18.9348 37.2757 19.5817 35.4922 19.5817C32.2362 19.5817 30.1632 17.5516 30.1632 13.806L30.1596 13.8095ZM37.9655 12.3585C37.8976 10.3284 36.9397 8.99167 35.4243 8.99167C33.9089 8.99167 32.8831 10.264 32.5936 12.4264L37.969 12.3585H37.9655ZM45.3388 19.6067L41.2572 10.2855C40.9212 9.50634 40.7425 9.34908 40.21 9.05958L39.5845 8.74863V8.16963H45.0707V8.74863L44.4453 8.94878C43.8448 9.12749 43.5982 9.3741 43.5982 9.68505C43.5982 9.81729 43.6411 9.99599 43.7555 10.264L46.4539 16.6438L49.1309 10.264C49.2417 9.99599 49.2882 9.81729 49.2882 9.68505C49.2882 9.3741 49.0201 9.12749 48.4411 8.94878L47.7942 8.74863V8.16963H52.1188V8.74863L51.3826 9.10604C50.9358 9.35266 50.6928 9.53136 50.3783 10.264L46.5182 19.6067H45.3388ZM51.3969 13.8095C51.3969 10.5321 53.5806 7.94447 56.615 7.94447C59.4028 7.94447 61.3436 9.72793 61.4329 12.9625V13.4521H53.7629V13.7416C53.7629 16.5973 55.2354 18.1342 57.5979 18.1342C58.8238 18.1342 59.7388 17.7553 60.6323 17.1299L61.1684 17.8197C60.0104 18.9348 58.5129 19.5817 56.7294 19.5817C53.4734 19.5817 51.4005 17.5516 51.4005 13.806L51.3969 13.8095ZM59.2027 12.3585C59.1348 10.3284 58.1769 8.99167 56.6615 8.99167C55.1461 8.99167 54.1203 10.264 53.8308 12.4264L59.2063 12.3585H59.2027ZM61.9869 19.3601V18.7811L62.8804 18.4451C63.5488 18.1771 63.7275 17.909 63.7275 17.1978V11.4649C63.7275 10.55 63.5059 10.1711 62.859 10.0389L62.0334 9.86018V9.32406L65.2 7.94089L65.7147 8.25184V10.4356C66.8083 8.87373 68.3238 7.93732 69.8642 7.93732C72.1838 7.93732 73.6349 9.56353 73.6349 12.2405V17.1906C73.6349 17.9054 73.8136 18.1735 74.4605 18.438L75.354 18.7739V19.353H69.7784V18.7739L70.6719 18.438C71.2724 18.1914 71.4511 17.9483 71.4511 17.1906V12.7087C71.4511 10.768 70.5576 9.74223 68.9314 9.74223C67.8162 9.74223 66.6797 10.3891 65.922 11.3935V17.1906C65.922 17.9483 66.0792 18.1949 66.7011 18.438L67.5946 18.7739V19.353H61.9976L61.9869 19.3601ZM82.7345 19.3601V18.7811L83.628 18.4451C84.2749 18.1771 84.4751 17.9305 84.4751 17.1978V6.04662C84.4751 5.13166 84.2284 4.82071 83.6066 4.6849L82.7809 4.50619V3.92719L86.6624 2.45824V2.94789V17.1978C86.6624 17.934 86.8411 18.1807 87.488 18.4451L88.3815 18.7811V19.3601H82.7381H82.7345ZM89.4538 19.3601V18.7811L90.3473 18.4451C90.9942 18.1771 91.1943 17.9305 91.1943 17.1978V11.3756C91.1943 10.4392 90.9477 10.1032 90.3258 9.99242L89.5002 9.81371V9.25616L93.3853 7.94089V8.25184V17.1942C93.3853 17.9305 93.564 18.1771 94.2109 18.4416L95.1044 18.7775V19.3565H89.4609L89.4538 19.3601ZM90.5474 4.4633C90.5474 3.52689 91.2837 2.85854 92.1522 2.85854C93.0207 2.85854 93.757 3.52689 93.757 4.4633C93.757 5.39971 93.0886 6.08951 92.1522 6.08951C91.2158 6.08951 90.5474 5.35325 90.5474 4.4633ZM96.0265 19.3601V18.7811L96.92 18.4451C97.5884 18.1771 97.7671 17.909 97.7671 17.1978V11.4649C97.7671 10.55 97.5455 10.1711 96.8986 10.0389L96.073 9.86018V9.32406L99.2396 7.94089L99.7543 8.25184V10.4356C100.848 8.87373 102.363 7.93732 103.904 7.93732C106.223 7.93732 107.674 9.56353 107.674 12.2405V17.1906C107.674 17.9054 107.853 18.1735 108.5 18.438L109.394 18.7739V19.353H103.818V18.7739L104.712 18.438C105.312 18.1914 105.491 17.9483 105.491 17.1906V12.7087C105.491 10.768 104.597 9.74223 102.971 9.74223C101.856 9.74223 100.719 10.3891 99.9616 11.3935V17.1906C99.9616 17.9483 100.119 18.1949 100.741 18.438L101.634 18.7739V19.353H96.0372L96.0265 19.3601ZM119.34 19.3494L114.462 13.7988L116.942 11.49C117.364 11.0682 117.682 10.7144 117.682 10.2676C117.682 9.6493 117.014 9.47417 116.345 9.38125V8.72362H121.578V9.42414C120.32 9.57425 119.297 10.2748 117.882 11.4971L116.363 12.8481L121.842 18.9384V19.3565H119.337L119.34 19.3494ZM110.076 19.3494V18.656C110.598 18.6131 111.681 18.4416 111.681 17.3801V5.16383L110.055 4.13806V3.83426L113.84 2.46896V17.3765C113.84 18.438 114.923 18.6095 115.445 18.6524V19.3458H110.076V19.3494ZM81.9732 18.8025V18.0341C81.5264 18.1449 80.9367 18.2092 80.5614 18.2092C79.2891 18.2092 78.5599 17.666 78.5599 16.7224V9.86018H81.9053V8.75221H78.5599V6.21103H77.8666C77.2054 7.6085 75.908 8.72719 74.8643 9.25616V9.86375H76.4048V17.4623C76.4048 18.7275 77.5163 19.6103 79.1104 19.6103C80.1182 19.6103 81.1297 19.3244 81.9732 18.8061V18.8025ZM9.21907 20.5967C10.134 20.5967 10.9489 21.1722 11.2563 22.0335L12.2713 24.8892C12.3071 24.9857 12.4393 24.9857 12.4751 24.8892L13.4901 22.0335C13.7975 21.1722 14.6124 20.5967 15.5273 20.5967H19.0836C19.0836 24.3031 16.0777 25.8828 12.375 25.8828C8.66866 25.8828 5.66643 24.3031 5.66643 20.5967H9.22264H9.21907ZM19.0836 7.17246C22.7899 7.17246 24.3696 10.1783 24.3696 13.881C24.3696 17.5874 22.7899 20.5896 19.0836 20.5896V17.0334C19.0836 16.1184 19.659 15.3035 20.5203 14.9961L23.376 13.9811C23.4725 13.9454 23.4725 13.8131 23.376 13.7774L20.5203 12.7623C19.659 12.455 19.0836 11.6401 19.0836 10.7251V7.16889V7.17246ZM5.6557 10.7323C5.6557 11.6472 5.08028 12.4621 4.21892 12.7695L1.36323 13.7845C1.26672 13.8203 1.26672 13.9525 1.36323 13.9882L4.21892 15.0033C5.08028 15.3107 5.6557 16.1256 5.6557 17.0405V20.5967C1.94938 20.5932 0.369629 17.5909 0.369629 13.8846C0.369629 10.1783 1.94938 7.17246 5.6557 7.17246V10.7287V10.7323ZM12.3714 1.88281C16.0777 1.88281 19.08 3.46256 19.08 7.16889H15.5238C14.6088 7.16889 13.7939 6.59346 13.4865 5.73211L12.4715 2.87641C12.4357 2.77991 12.3035 2.77991 12.2678 2.87641L11.2527 5.73211C10.9454 6.59346 10.1305 7.16889 9.2155 7.16889H5.65928C5.65928 3.46256 8.66509 1.88281 12.3714 1.88281Z" fill="white"/>
<path d="M166.259 8.97141C165.134 8.97141 164.482 9.71391 164.482 10.6364C164.482 13.0214 169.927 12.6164 169.927 16.0589C169.927 17.9039 168.397 19.3439 166.124 19.3439C164.819 19.3439 163.357 18.8039 162.569 18.0614V15.3389H163.447C163.874 17.3639 164.774 18.3539 166.169 18.3539C167.497 18.3539 168.307 17.5664 168.307 16.5089C168.307 13.8539 162.929 14.3039 162.929 11.0189C162.929 9.26391 164.392 8.00391 166.327 8.00391C167.699 8.00391 168.779 8.45391 169.477 8.97141V11.6264H168.577C168.262 10.0739 167.654 8.97141 166.259 8.97141Z" fill="white" fill-opacity="0.5"/>
<path d="M157.764 9.03891C156.032 9.03891 154.592 10.6589 154.592 13.3814C154.592 15.6539 155.784 17.6789 158.012 17.6789C159.047 17.6789 160.082 17.3414 160.937 16.3064L161.409 16.7114C160.689 18.1964 159.384 19.3439 157.584 19.3439C154.952 19.3439 153.062 17.0714 153.062 13.8089C153.062 10.5239 155.267 8.00391 158.124 8.00391C159.812 8.00391 161.342 8.90391 161.342 10.2989C161.342 10.9064 160.937 11.3789 160.307 11.3789C159.789 11.3789 159.474 11.0864 159.339 10.5014C159.092 9.51141 158.754 9.03891 157.764 9.03891Z" fill="white" fill-opacity="0.5"/>
<path d="M141.734 13.8764C141.734 10.6814 143.692 8.00391 146.684 8.00391C149.609 8.00391 151.657 10.2089 151.657 13.4264C151.657 16.6439 149.699 19.3439 146.684 19.3439C143.759 19.3439 141.734 17.1389 141.734 13.8764ZM143.534 13.0439C143.534 15.6764 144.929 18.3539 146.909 18.3539C148.979 18.3539 149.834 16.7564 149.834 14.3039C149.834 11.6489 148.439 8.99391 146.369 8.99391C144.412 8.99391 143.534 10.5914 143.534 13.0439Z" fill="white" fill-opacity="0.5"/>
<path d="M140.85 18.8928L137.745 19.3428H137.25V17.3853C136.372 18.5553 135.135 19.3428 133.83 19.3428C131.467 19.3428 129.352 17.3178 129.352 14.1678C129.352 10.4553 131.692 8.00281 134.707 8.00281C135.81 8.00281 136.597 8.31781 137.25 8.81281V4.24531L135.517 3.27781V2.96281L138.555 1.88281H138.96V16.8453C138.96 17.5653 139.185 17.9253 139.927 17.9928L140.85 18.1053V18.8928ZM137.25 16.6878V12.0753C137.25 10.1178 135.922 9.12781 134.37 9.12781C132.412 9.12781 130.95 10.7478 130.95 13.2228C130.95 16.0128 132.48 17.7453 134.82 17.7453C135.72 17.7453 136.665 17.3853 137.25 16.6878Z" fill="white" fill-opacity="0.5"/>
</svg>
