<svg width="170" height="28" viewBox="0 0 170 28" fill="none" xmlns="http://www.w3.org/2000/svg">
<path d="M29.79 13.9267C29.79 10.6493 31.9738 8.06165 35.0082 8.06165C37.796 8.06165 39.7367 9.84512 39.8261 13.0797V13.5693H32.1561V13.8588C32.1561 16.7145 33.6286 18.2514 35.9911 18.2514C37.217 18.2514 38.1319 17.8725 39.0255 17.2471L39.5616 17.9369C38.4036 19.052 36.906 19.6989 35.1226 19.6989C31.8666 19.6989 29.7936 17.6688 29.7936 13.9232L29.79 13.9267ZM37.5958 12.4757C37.5279 10.4456 36.5701 9.10886 35.0547 9.10886C33.5392 9.10886 32.5135 10.3812 32.224 12.5436L37.5994 12.4757H37.5958ZM44.9692 19.7239L40.8876 10.4027C40.5516 9.62353 40.3729 9.46627 39.8404 9.17677L39.2149 8.86582V8.28682H44.7011V8.86582L44.0756 9.06597C43.4752 9.24468 43.2286 9.49129 43.2286 9.80223C43.2286 9.93447 43.2715 10.1132 43.3858 10.3812L46.0843 16.761L48.7613 10.3812C48.8721 10.1132 48.9185 9.93447 48.9185 9.80223C48.9185 9.49129 48.6505 9.24468 48.0715 9.06597L47.4246 8.86582V8.28682H51.7492V8.86582L51.013 9.22323C50.5662 9.46984 50.3232 9.64855 50.0086 10.3812L46.1486 19.7239H44.9692ZM51.0273 13.9267C51.0273 10.6493 53.211 8.06165 56.2454 8.06165C59.0332 8.06165 60.9739 9.84512 61.0633 13.0797V13.5693H53.3933V13.8588C53.3933 16.7145 54.8658 18.2514 57.2283 18.2514C58.4542 18.2514 59.3692 17.8725 60.2627 17.2471L60.7988 17.9369C59.6408 19.052 58.1433 19.6989 56.3598 19.6989C53.1038 19.6989 51.0308 17.6688 51.0308 13.9232L51.0273 13.9267ZM58.8331 12.4757C58.7651 10.4456 57.8073 9.10886 56.2919 9.10886C54.7765 9.10886 53.7507 10.3812 53.4612 12.5436L58.8366 12.4757H58.8331ZM61.6173 19.4773V18.8983L62.5108 18.5623C63.1791 18.2943 63.3579 18.0262 63.3579 17.315V11.5821C63.3579 10.6672 63.1363 10.2883 62.4893 10.1561L61.6637 9.97736V9.44125L64.8304 8.05808L65.345 8.36902V10.5528C66.4387 8.99092 67.9541 8.0545 69.4946 8.0545C71.8141 8.0545 73.2652 9.68071 73.2652 12.3577V17.3078C73.2652 18.0226 73.4439 18.2907 74.0908 18.5552L74.9844 18.8911V19.4701H69.4088V18.8911L70.3023 18.5552C70.9027 18.3086 71.0815 18.0655 71.0815 17.3078V12.8259C71.0815 10.8852 70.1879 9.85942 68.5617 9.85942C67.4466 9.85942 66.31 10.5063 65.5523 11.5106V17.3078C65.5523 18.0655 65.7096 18.3121 66.3315 18.5552L67.225 18.8911V19.4701H61.628L61.6173 19.4773ZM82.3648 19.4773V18.8983L83.2584 18.5623C83.9053 18.2943 84.1054 18.0477 84.1054 17.315V6.16381C84.1054 5.24885 83.8588 4.9379 83.2369 4.80208L82.4113 4.62338V4.04438L86.2928 2.57543V3.06508V17.315C86.2928 18.0512 86.4715 18.2978 87.1184 18.5623L88.0119 18.8983V19.4773H82.3684H82.3648ZM89.0841 19.4773V18.8983L89.9777 18.5623C90.6246 18.2943 90.8247 18.0477 90.8247 17.315V11.4928C90.8247 10.5564 90.5781 10.2204 89.9562 10.1096L89.1306 9.9309V9.37334L93.0156 8.05808V8.36902V17.3114C93.0156 18.0477 93.1943 18.2943 93.8412 18.5587L94.7348 18.8947V19.4737H89.0913L89.0841 19.4773ZM90.1778 4.58049C90.1778 3.64408 90.9141 2.97573 91.7826 2.97573C92.6511 2.97573 93.3873 3.64408 93.3873 4.58049C93.3873 5.5169 92.719 6.2067 91.7826 6.2067C90.8462 6.2067 90.1778 5.47044 90.1778 4.58049ZM95.6569 19.4773V18.8983L96.5504 18.5623C97.2188 18.2943 97.3975 18.0262 97.3975 17.315V11.5821C97.3975 10.6672 97.1759 10.2883 96.529 10.1561L95.7033 9.97736V9.44125L98.87 8.05808L99.3847 8.36902V10.5528C100.478 8.99092 101.994 8.0545 103.534 8.0545C105.854 8.0545 107.305 9.68071 107.305 12.3577V17.3078C107.305 18.0226 107.484 18.2907 108.13 18.5552L109.024 18.8911V19.4701H103.448V18.8911L104.342 18.5552C104.942 18.3086 105.121 18.0655 105.121 17.3078V12.8259C105.121 10.8852 104.228 9.85942 102.601 9.85942C101.486 9.85942 100.35 10.5063 99.592 11.5106V17.3078C99.592 18.0655 99.7492 18.3121 100.371 18.5552L101.265 18.8911V19.4701H95.6676L95.6569 19.4773ZM118.971 19.4666L114.092 13.916L116.572 11.6071C116.994 11.1854 117.312 10.8316 117.312 10.3848C117.312 9.76649 116.644 9.59136 115.976 9.49844V8.8408H121.208V9.54133C119.95 9.69144 118.928 10.392 117.512 11.6143L115.993 12.9653L121.473 19.0555V19.4737H118.967L118.971 19.4666ZM109.707 19.4666V18.7732C110.228 18.7303 111.311 18.5587 111.311 17.4972V5.28101L109.685 4.25525V3.95145L113.47 2.58615V17.4937C113.47 18.5552 114.553 18.7267 115.075 18.7696V19.463H109.707V19.4666ZM81.6036 18.9197V18.1513C81.1568 18.2621 80.5671 18.3264 80.1918 18.3264C78.9194 18.3264 78.1903 17.7832 78.1903 16.8396V9.97736H81.5357V8.8694H78.1903V6.32822H77.4969C76.8357 7.72569 75.5383 8.84438 74.4947 9.37334V9.98094H76.0351V17.5794C76.0351 18.8447 77.1467 19.7275 78.7407 19.7275C79.7486 19.7275 80.7601 19.4415 81.6036 18.9233V18.9197ZM8.84944 20.7139C9.76441 20.7139 10.5793 21.2894 10.8867 22.1507L11.9017 25.0064C11.9375 25.1029 12.0697 25.1029 12.1054 25.0064L13.1205 22.1507C13.4278 21.2894 14.2427 20.7139 15.1577 20.7139H18.7139C18.7139 24.4203 15.7081 26 12.0054 26C8.29903 26 5.2968 24.4203 5.2968 20.7139H8.85302H8.84944ZM18.7139 7.28965C22.4203 7.28965 24 10.2955 24 13.9982C24 17.7045 22.4203 20.7068 18.7139 20.7068V17.1506C18.7139 16.2356 19.2894 15.4207 20.1507 15.1133L23.0064 14.0983C23.1029 14.0625 23.1029 13.9303 23.0064 13.8946L20.1507 12.8795C19.2894 12.5722 18.7139 11.7573 18.7139 10.8423V7.28608V7.28965ZM5.28608 10.8494C5.28608 11.7644 4.71065 12.5793 3.84929 12.8867L0.993596 13.9017C0.897096 13.9375 0.897096 14.0697 0.993596 14.1054L3.84929 15.1205C4.71065 15.4278 5.28608 16.2427 5.28608 17.1577V20.7139C1.57975 20.7103 0 17.7081 0 14.0018C0 10.2955 1.57975 7.28965 5.28608 7.28965V10.8459V10.8494ZM12.0018 2C15.7081 2 18.7103 3.57975 18.7103 7.28608H15.1541C14.2392 7.28608 13.4243 6.71065 13.1169 5.84929L12.1019 2.9936C12.0661 2.8971 11.9339 2.8971 11.8981 2.9936L10.8831 5.84929C10.5757 6.71065 9.76083 7.28608 8.84587 7.28608H5.28965C5.28965 3.57975 8.29546 2 12.0018 2Z" fill="#142B3D"/>
<path d="M165.89 9.08859C164.765 9.08859 164.112 9.83109 164.112 10.7536C164.112 13.1386 169.557 12.7336 169.557 16.1761C169.557 18.0211 168.027 19.4611 165.755 19.4611C164.45 19.4611 162.987 18.9211 162.2 18.1786V15.4561H163.077C163.505 17.4811 164.405 18.4711 165.8 18.4711C167.127 18.4711 167.937 17.6836 167.937 16.6261C167.937 13.9711 162.56 14.4211 162.56 11.1361C162.56 9.38109 164.022 8.12109 165.957 8.12109C167.33 8.12109 168.41 8.57109 169.107 9.08859V11.7436H168.207C167.892 10.1911 167.285 9.08859 165.89 9.08859Z" fill="#142B3D" fill-opacity="0.5"/>
<path d="M157.395 9.15609C155.662 9.15609 154.222 10.7761 154.222 13.4986C154.222 15.7711 155.415 17.7961 157.642 17.7961C158.677 17.7961 159.712 17.4586 160.567 16.4236L161.04 16.8286C160.32 18.3136 159.015 19.4611 157.215 19.4611C154.582 19.4611 152.692 17.1886 152.692 13.9261C152.692 10.6411 154.897 8.12109 157.755 8.12109C159.442 8.12109 160.972 9.02109 160.972 10.4161C160.972 11.0236 160.567 11.4961 159.937 11.4961C159.42 11.4961 159.105 11.2036 158.97 10.6186C158.722 9.62859 158.385 9.15609 157.395 9.15609Z" fill="#142B3D" fill-opacity="0.5"/>
<path d="M141.365 13.9936C141.365 10.7986 143.322 8.12109 146.315 8.12109C149.24 8.12109 151.287 10.3261 151.287 13.5436C151.287 16.7611 149.33 19.4611 146.315 19.4611C143.39 19.4611 141.365 17.2561 141.365 13.9936ZM143.165 13.1611C143.165 15.7936 144.56 18.4711 146.54 18.4711C148.61 18.4711 149.465 16.8736 149.465 14.4211C149.465 11.7661 148.07 9.11109 146 9.11109C144.042 9.11109 143.165 10.7086 143.165 13.1611Z" fill="#142B3D" fill-opacity="0.5"/>
<path d="M140.48 19.01L137.375 19.46H136.88V17.5025C136.003 18.6725 134.765 19.46 133.46 19.46C131.098 19.46 128.983 17.435 128.983 14.285C128.983 10.5725 131.323 8.12 134.338 8.12C135.44 8.12 136.228 8.435 136.88 8.93V4.3625L135.148 3.395V3.08L138.185 2H138.59V16.9625C138.59 17.6825 138.815 18.0425 139.558 18.11L140.48 18.2225V19.01ZM136.88 16.805V12.1925C136.88 10.235 135.553 9.245 134 9.245C132.043 9.245 130.58 10.865 130.58 13.34C130.58 16.13 132.11 17.8625 134.45 17.8625C135.35 17.8625 136.295 17.5025 136.88 16.805Z" fill="#142B3D" fill-opacity="0.5"/>
</svg>
